<?xml version="1.0" standalone="no"?>
<!DOCTYPE svg PUBLIC "-//W3C//DTD SVG 20010904//EN"
 "http://www.w3.org/TR/2001/REC-SVG-20010904/DTD/svg10.dtd">
<svg version="1.0" xmlns="http://www.w3.org/2000/svg"
 width="260.000000pt" height="260.000000pt" viewBox="0 0 260.000000 260.000000"
 preserveAspectRatio="xMidYMid meet">
<metadata>
Created by potrace 1.11, written by Peter Selinger 2001-2013
</metadata>
<g transform="translate(0.000000,260.000000) scale(0.100000,-0.100000)"
fill="#000000" stroke="none">
<path d="M0 1300 l0 -1300 1300 0 1300 0 0 1300 0 1300 -1300 0 -1300 0 0
-1300z m1162 803 c8 -10 41 -82 73 -160 32 -79 60 -143 64 -143 3 0 33 67 65
148 33 81 64 153 69 160 6 7 34 12 73 12 59 0 64 -2 78 -27 41 -80 656 -1578
654 -1592 -5 -23 -169 -29 -187 -7 -7 8 -88 203 -180 433 -92 230 -212 525
-266 656 -89 214 -100 236 -110 215 -7 -13 -126 -308 -265 -656 -139 -348
-259 -640 -267 -648 -18 -17 -163 -20 -180 -3 -14 14 -37 -47 209 553 123 297
207 515 203 525 -27 74 -100 241 -105 241 -4 0 -123 -291 -265 -647 -142 -357
-265 -656 -273 -665 -20 -24 -179 -26 -188 -3 -6 14 622 1555 652 1603 12 19
23 22 73 22 43 0 62 -5 73 -17z"/>
</g>
</svg>
